<?xml version="1.0" encoding="UTF-8"?><svg id="Layer_1" xmlns="http://www.w3.org/2000/svg" viewBox="0 0 768 185.42"><path d="M0,137.71L62.59,36.79l24.51,36.73L127.3,6.82l72.73,118.64h-80.14l-.43.84,6.99,11.41H0ZM191.57,120.82L127.71,16.1v104.71h63.86Z"/><path d="M101.78,149.37c15.63,4.4,7.23,13.27-3.4,23.9-.51.51-.68,1.27-.07,1.66.8.5,1.35.36,2.78.36h666.23l.63.63v9.5H96.42c-4.09,0-6.65-2.42-8.26-4.63-6.27-8.62,2.37-14.95,8.06-19.83.52-.45.2-1.3-.49-1.3H0s0-10.7,0-10.7h98.75c1.02,0,2.04.14,3.02.41Z"/><path d="M189.03,10.19c13.03,1.4,49.12-5.21,54.88,10.86,2.92,8.16-1.63,15.32-9.2,18.27,11.8,2.59,16.04,17.79,7.56,26.35-10.9,11-38.93,5.03-53.23,6.6V10.19ZM219.27,24.97c-2.89-.48-6.91.35-9.94,0v9.29h10.78c3.92,0,6.02-8.16-.85-9.29ZM209.33,57.48h9.94c7.95,0,7.64-9.71,1.69-9.71h-11.63v9.71Z" style="fill:#367fb6;"/><path d="M634.75,6.81v23.65c7.56-13.3,31.72-7.59,31.72,7.39v34.41h-19.88v-27.23c0-6.26-11.84-5.94-11.84.84v26.39h-19.88V6.81h19.88Z" style="fill:#367fb6;"/><path d="M387.36,6.81v29.13l11.21-12.24h22.2l-17.21,18.78,17.21,29.77h-23.68l-7.2-15.2c-.15-.08-2.53,2.15-2.53,2.32v12.88h-19.88V6.81h19.88Z" style="fill:#367fb6;"/><path d="M358.61,72.26h-19.88v-27.23c0-6.33-11.84-5.93-11.84.84v26.39h-19.88V23.7h19.88v6.76c7.56-13.3,31.72-7.59,31.72,7.39v34.41Z" style="fill:#367fb6;"/><path d="M445.22,22.99c38.12-2.97,40.43,44.51,9.91,49.58-41.4,6.87-45.6-46.8-9.91-49.58ZM447.75,38.58c-9.14.9-8.72,19.73,1.13,19.34,9.62-.38,9.52-20.39-1.13-19.34Z" style="fill:#367fb6;"/><path d="M300.67,52.42h-31.29c2.6,8.85,12.5,6.5,17.91,1.72l9.96,9.95c-14.34,15.77-46.3,11.14-48.11-13.21-2.84-38.24,51.53-34.14,51.53-6.27v7.81ZM280.8,43.13c.27-9.55-11.38-9.1-11.84,0h11.84Z" style="fill:#367fb6;"/><polygon points="496.89 23.7 504.29 53.69 512.11 23.7 531.99 23.7 514.44 71.84 493.57 71.56 476.17 23.7 496.89 23.7" style="fill:#367fb6;"/><path d="M609.38,37.21l-15.1,6.28c-3.49-5.97-10.63-6.51-12.62.89-2.64,9.85,5.72,19.31,12.27,8l15.42,6.82c-4.79,15.64-29.05,17.79-40.37,8-8.69-7.51-9.86-22.03-4.92-31.96,8.49-17.08,39.01-16.66,45.32,1.97Z" style="fill:#367fb6;"/><rect x="535.79" y="23.7" width="19.88" height="48.56" style="fill:#367fb6;"/><ellipse cx="545.72" cy="10.16" rx="10.17" ry="10.16" style="fill:#367fb6;"/><path d="M247.73,88.44c43.23-3.18,45.2,56.41,5.36,58.55-41.64,2.23-44.71-55.66-5.36-58.55ZM248.13,100.66c-17.69,2.45-17.62,31.09-.35,33.9,24.86,4.06,25.43-37.38.35-33.9Z" style="fill:#367fb6;"/><path d="M510,85.35v60.8h-13.96v-5.49c-8.21,10.56-25.41,7.17-31.1-4.21-11.02-22.04,10.93-47.51,31.1-28.73v-22.38h13.96ZM484.09,112.9c-11.12,1.9-10.46,24.85,3.66,23.08,11.87-1.49,11.42-25.65-3.66-23.08Z" style="fill:#367fb6;"/><path d="M373.41,85.35v23.65c7.48-12.57,30.87-8.72,30.87,6.97v30.19h-13.96v-24.7c0-10.93-16.92-8.82-16.92.42v24.28h-13.96v-60.8h13.96Z" style="fill:#367fb6;"/><path d="M618.26,146.15h-13.96v-25.55c0-9.46-16.92-7.97-16.92.84v24.7h-13.96v-43.91h13.96v6.76c7.48-12.57,30.87-8.72,30.87,6.97v30.19Z" style="fill:#367fb6;"/><path d="M431.68,101.95c36.31-2.78,35.97,47.06.31,44.62-28.7-1.97-29.18-42.4-.31-44.62ZM434.2,112.92c-13.4.42-12.89,24.1,1.58,22.67,12.16-1.2,11.53-23.08-1.58-22.67Z" style="fill:#367fb6;"/><path d="M539.1,101.95c36.29-2.78,35.97,47.07.31,44.62-28.7-1.97-29.18-42.4-.31-44.62ZM541.62,112.92c-13.4.42-12.89,24.1,1.58,22.67,12.16-1.2,11.53-23.08-1.58-22.67Z" style="fill:#367fb6;"/><path d="M767.5,106.08l-4.24,9.22c-.97.54-20.21-10.28-18.17.28,7.1,4.91,21.66,4.31,22.81,15.64,1.97,19.4-27.78,18.43-38.41,9.83l4.21-9.25c2.84,2.57,19.37,9.14,20.72,3.14,1.04-4.63-11.71-6.41-15.09-8.14-12.36-6.31-9.18-21.55,3.82-24.62,8.52-2.01,16.75.05,24.34,3.9Z" style="fill:#367fb6;"/><path d="M726.94,111.94l-9.95,5.49c-25.04-18.68-23.78,33.35.35,13.17l9.57,5.47c-9.54,17.06-39.13,13.11-42.19-7.5-3.91-26.24,28.06-36.28,42.22-16.62Z" style="fill:#367fb6;"/><path d="M339.58,91.68v12.24h11.42v9.29h-11.42v18.79c0,4.9,6.9,3.63,9.72,2.32l2.49,9.44c-7.69,6.28-26.17,3.34-26.17-8.38v-22.17h-5.92v-9.29h5.92v-12.24h13.96Z" style="fill:#367fb6;"/><path d="M644.05,91.68v12.24h11.42v9.29h-11.42v18.79c0,4.9,6.9,3.63,9.72,2.32l2.49,9.44c-7.69,6.28-26.17,3.34-26.17-8.38v-22.17h-5.92v-9.29h5.92v-12.24h13.96Z" style="fill:#367fb6;"/><path d="M317.59,101.4v12.67c-4.44-1.17-14.38,3.28-14.38,8.23v23.86h-13.96v-43.91h13.96v6.76c3.58-4.68,8.26-7.66,14.38-7.6Z" style="fill:#367fb6;"/><rect x="663.51" y="102.24" width="13.96" height="43.91" style="fill:#367fb6;"/><path d="M668.9,82.08c10.35-1.58,11.79,12.68,3.94,14.49-11.75,2.71-12.79-13.15-3.94-14.49Z" style="fill:#367fb6;"/><polygon points="116.83 132.82 62.43 43.63 62.43 132.82 116.83 132.82" style="fill:#074471;"/><polygon points="191.57 120.82 127.71 16.1 127.71 120.82 191.57 120.82" style="fill:#f8f8ed;"/></svg>